<svg width="16" height="18" viewBox="0 0 16 18" fill="none" xmlns="http://www.w3.org/2000/svg">
<path d="M5.61979 16.3185V13.7628C5.61977 13.1152 6.1464 12.589 6.79871 12.5849H9.19385C9.84907 12.5849 10.3802 13.1123 10.3802 13.7628V16.3111C10.3802 16.8728 10.8367 17.3293 11.4025 17.3334H13.0365C13.7997 17.3354 14.5323 17.0357 15.0727 16.5007C15.613 15.9656 15.9167 15.239 15.9167 14.4814V7.22162C15.9167 6.60957 15.6434 6.02901 15.1705 5.63633L9.61916 1.22864C8.64877 0.457683 7.26282 0.482588 6.32117 1.2879L0.889187 5.63633C0.393961 6.01743 0.0979704 6.59972 0.0833435 7.22162V14.4739C0.0833435 16.0532 1.37283 17.3334 2.96349 17.3334H4.56025C4.83265 17.3354 5.09458 17.2293 5.2879 17.0388C5.48123 16.8482 5.58995 16.589 5.58994 16.3185H5.61979Z" fill="white"/>
</svg>
